<svg width="32" height="32" viewBox="0 0 32 32" fill="none" xmlns="http://www.w3.org/2000/svg">
<rect x="0.25" y="0.25" width="31.5" height="31.5" rx="3.75" fill="#FF002E" fill-opacity="0.08"/>
<path d="M13.952 17.08V18.69H12.538V21H10.802V18.69H6.112V17.304L9.304 11.2H11.11L8.114 17.08H10.802V14.812H12.538V17.08H13.952ZM15.6625 14.952C15.9425 14.952 16.1712 15.0453 16.3485 15.232C16.5352 15.4187 16.6285 15.6567 16.6285 15.946C16.6285 16.2447 16.5352 16.492 16.3485 16.688C16.1712 16.8747 15.9425 16.968 15.6625 16.968C15.3919 16.968 15.1632 16.87 14.9765 16.674C14.7992 16.478 14.7105 16.2353 14.7105 15.946C14.7105 15.6567 14.7992 15.4187 14.9765 15.232C15.1632 15.0453 15.3919 14.952 15.6625 14.952ZM15.6625 19.11C15.9425 19.11 16.1712 19.2033 16.3485 19.39C16.5352 19.5767 16.6285 19.8147 16.6285 20.104C16.6285 20.4027 16.5352 20.65 16.3485 20.846C16.1712 21.0327 15.9425 21.126 15.6625 21.126C15.3919 21.126 15.1632 21.028 14.9765 20.832C14.7992 20.636 14.7105 20.3933 14.7105 20.104C14.7105 19.8147 14.7992 19.5767 14.9765 19.39C15.1632 19.2033 15.3919 19.11 15.6625 19.11ZM21.3631 14.784C22.1004 14.784 22.7491 14.91 23.3091 15.162C23.8691 15.414 24.2984 15.7687 24.5971 16.226C24.9051 16.674 25.0591 17.1827 25.0591 17.752C25.0591 18.4147 24.9004 18.998 24.5831 19.502C24.2657 20.006 23.8177 20.398 23.2391 20.678C22.6604 20.9487 21.9884 21.084 21.2231 21.084C20.6071 21.084 19.9631 20.9813 19.2911 20.776C18.6284 20.5613 18.0404 20.2767 17.5271 19.922L18.2691 18.452C18.6891 18.7787 19.1371 19.0353 19.6131 19.222C20.0891 19.3993 20.5651 19.488 21.0411 19.488C21.6571 19.488 22.1424 19.348 22.4971 19.068C22.8611 18.7787 23.0431 18.3867 23.0431 17.892C23.0431 17.416 22.8657 17.0473 22.5111 16.786C22.1564 16.5247 21.6291 16.394 20.9291 16.394C20.5931 16.394 20.1497 16.408 19.5991 16.436C19.0484 16.4547 18.6237 16.478 18.3251 16.506V11.2H24.6251V12.838H20.0611V14.784H21.3631Z" fill="#D90429"/>
<rect x="0.25" y="0.25" width="31.5" height="31.5" rx="3.75" stroke="#FF002E" stroke-width="0.5"/>
</svg>
