<svg width="42" height="24" viewBox="0 0 42 24" fill="none" xmlns="http://www.w3.org/2000/svg">
<path d="M3 4H21V6H3V4ZM3 19H17V21H3V19ZM3 14H21V16H3V14ZM3 9H17V11H3V9Z" fill="#272727"/>
<g clip-path="url(#clip0_346_3029)">
<path d="M36.5867 10.1935L34 12.7802L31.4133 10.1935C31.1533 9.93354 30.7333 9.93354 30.4733 10.1935C30.2133 10.4535 30.2133 10.8735 30.4733 11.1335L33.5333 14.1935C33.7933 14.4535 34.2133 14.4535 34.4733 14.1935L37.5333 11.1335C37.7933 10.8735 37.7933 10.4535 37.5333 10.1935C37.2733 9.9402 36.8467 9.93354 36.5867 10.1935Z" fill="#272727"/>
</g>
<defs>
<clipPath id="clip0_346_3029">
<rect width="16" height="16" fill="white" transform="translate(26 4)"/>
</clipPath>
</defs>
</svg>
