<svg width="22" height="22" viewBox="0 0 22 22" fill="none" xmlns="http://www.w3.org/2000/svg">
<path d="M16.657 13.8286L15.2428 12.4143L16.657 11.0001C18.2191 9.438 18.2191 6.90538 16.657 5.34328C15.0949 3.78118 12.5622 3.78118 11.0001 5.34328L9.5859 6.75749L8.17171 5.34328L9.5859 3.92907C11.9291 1.58592 15.7281 1.58592 18.0712 3.92907C20.4143 6.27221 20.4143 10.0712 18.0712 12.4143L16.657 13.8286ZM13.8286 16.657L12.4143 18.0712C10.0712 20.4143 6.27221 20.4143 3.92907 18.0712C1.58592 15.7281 1.58592 11.9291 3.92907 9.5859L5.34328 8.17171L6.75749 9.5859L5.34328 11.0001C3.78118 12.5622 3.78118 15.0949 5.34328 16.657C6.90538 18.2191 9.438 18.2191 11.0001 16.657L12.4143 15.2428L13.8286 16.657ZM13.8286 6.75749L15.2428 8.17171L8.17171 15.2428L6.75749 13.8286L13.8286 6.75749ZM4.77539 1.29303L6.70724 0.775391L7.74252 4.63909L5.81067 5.15673L4.77539 1.29303ZM14.2578 17.3612L16.1896 16.8435L17.2249 20.7072L15.293 21.2249L14.2578 17.3612ZM1.29303 4.77539L5.15673 5.81067L4.63909 7.74252L0.775391 6.70724L1.29303 4.77539ZM17.3612 14.2578L21.2249 15.293L20.7072 17.2249L16.8435 16.1896L17.3612 14.2578Z" fill="#D90429"/>
</svg>
