<svg width="32" height="32" viewBox="0 0 32 32" fill="none" xmlns="http://www.w3.org/2000/svg">
<rect x="0.25" y="0.25" width="31.5" height="31.5" rx="3.75" fill="#FF002E" fill-opacity="0.08"/>
<path d="M16.0008 13.5003C14.6197 13.5003 13.5008 14.6196 13.5008 16.0003C13.5008 17.3814 14.6201 18.5003 16.0008 18.5003C17.3819 18.5003 18.5008 17.3811 18.5008 16.0003C18.5008 14.6192 17.3816 13.5003 16.0008 13.5003ZM16.0008 11.8337C18.3012 11.8337 20.1675 13.6979 20.1675 16.0003C20.1675 18.3007 18.3032 20.167 16.0008 20.167C13.7004 20.167 11.8341 18.3027 11.8341 16.0003C11.8341 13.6999 13.6984 11.8337 16.0008 11.8337ZM21.4175 11.6246C21.4175 12.1997 20.9502 12.6663 20.3758 12.6663C19.8007 12.6663 19.3342 12.199 19.3342 11.6246C19.3342 11.0502 19.8014 10.5837 20.3758 10.5837C20.9494 10.5829 21.4175 11.0502 21.4175 11.6246ZM16.0008 9.33366C13.9387 9.33366 13.6026 9.33912 12.6436 9.38183C11.9901 9.4125 11.5521 9.50038 11.1451 9.65838C10.7835 9.79865 10.5226 9.96614 10.2446 10.2441C9.96556 10.5232 9.79836 10.7833 9.65866 11.1452C9.5003 11.5531 9.41244 11.9904 9.38231 12.6429C9.33919 13.563 9.33415 13.8845 9.33415 16.0003C9.33415 18.0624 9.33961 18.3985 9.38231 19.3575C9.413 20.0107 9.501 20.4493 9.65861 20.8553C9.79925 21.2175 9.96708 21.479 10.2437 21.7557C10.5239 22.0354 10.7848 22.2032 11.1432 22.3415C11.5552 22.5007 11.9929 22.5887 12.6434 22.6188C13.5635 22.6619 13.885 22.667 16.0008 22.667C18.0629 22.667 18.399 22.6615 19.358 22.6188C20.0097 22.5882 20.4487 22.5 20.8558 22.3425C21.217 22.2022 21.4793 22.0338 21.7562 21.7574C22.0363 21.4768 22.2037 21.2165 22.3422 20.8572C22.5011 20.4468 22.5892 20.0085 22.6193 19.3577C22.6624 18.4377 22.6675 18.1161 22.6675 16.0003C22.6675 13.9383 22.662 13.6022 22.6193 12.6431C22.5887 11.9912 22.5004 11.5516 22.3427 11.1446C22.2028 10.784 22.0347 10.5223 21.757 10.2441C21.4775 9.96462 21.218 9.79777 20.8559 9.65818C20.4483 9.49994 20.0103 9.41196 19.3582 9.38183C18.4382 9.3387 18.1166 9.33366 16.0008 9.33366ZM16.0008 7.66699C18.2647 7.66699 18.5473 7.67533 19.4362 7.71699C20.323 7.75797 20.9279 7.89824 21.4592 8.10449C22.0084 8.3163 22.4723 8.60241 22.9355 9.0656C23.398 9.5288 23.6842 9.99408 23.8967 10.542C24.1022 11.0725 24.2425 11.6781 24.2842 12.5649C24.3237 13.4538 24.3342 13.7364 24.3342 16.0003C24.3342 18.2642 24.3258 18.5468 24.2842 19.4357C24.2432 20.3226 24.1022 20.9274 23.8967 21.4587C23.6848 22.008 23.398 22.4718 22.9355 22.9351C22.4723 23.3976 22.0063 23.6837 21.4592 23.8962C20.9279 24.1017 20.323 24.242 19.4362 24.2837C18.5473 24.3232 18.2647 24.3337 16.0008 24.3337C13.7369 24.3337 13.4543 24.3253 12.5654 24.2837C11.6786 24.2427 11.0744 24.1017 10.5425 23.8962C9.99386 23.6843 9.52928 23.3976 9.06609 22.9351C8.6029 22.4718 8.31748 22.0059 8.10498 21.4587C7.89873 20.9274 7.75915 20.3226 7.71748 19.4357C7.6779 18.5468 7.66748 18.2642 7.66748 16.0003C7.66748 13.7364 7.67581 13.4538 7.71748 12.5649C7.75845 11.6774 7.89873 11.0732 8.10498 10.542C8.31678 9.99338 8.6029 9.5288 9.06609 9.0656C9.52928 8.60241 9.99456 8.31699 10.5425 8.10449C11.0737 7.89824 11.6779 7.75866 12.5654 7.71699C13.4543 7.67741 13.7369 7.66699 16.0008 7.66699Z" fill="#FF002E"/>
<rect x="0.25" y="0.25" width="31.5" height="31.5" rx="3.75" stroke="#FF002E" stroke-width="0.5"/>
</svg>
