<svg width="19" height="20" viewBox="0 0 19 20" fill="none" xmlns="http://www.w3.org/2000/svg">
<path d="M2 2.99658V5.99658H16V2.99658H2ZM1 0.996582H17C17.5523 0.996582 18 1.4443 18 1.99658V6.99658C18 7.54887 17.5523 7.99658 17 7.99658H1C0.44772 7.99658 0 7.54887 0 6.99658V1.99658C0 1.4443 0.44772 0.996582 1 0.996582ZM3 9.9966H9C9.5523 9.9966 10 10.4443 10 10.9966V13.9966H11V19.9966H7V13.9966H8V11.9966H2C1.44772 11.9966 1 11.5489 1 10.9966V8.9966H3V9.9966ZM14.7322 11.7288L16.5 9.961L18.2678 11.7288C19.2441 12.7051 19.2441 14.288 18.2678 15.2643C17.2915 16.2407 15.7085 16.2407 14.7322 15.2643C13.7559 14.288 13.7559 12.7051 14.7322 11.7288Z" fill="#FC3B3B"/>
</svg>
