<svg width="77" height="53" viewBox="0 0 77 53" fill="none" xmlns="http://www.w3.org/2000/svg">
<path d="M51.3817 49.0258V47.4727H45V52.62H51.3817V51.0206H46.8962V49.0258H51.3817ZM45 44V45.6012H51.3817V44H45Z" fill="black" stroke="#50DEFF" stroke-width="0.433716" stroke-miterlimit="10"/>
<path d="M53.9679 24.3677H53.5281C56.3031 23.594 60.1336 19.0582 60.1336 14.4816V13.3869C60.1336 6.54549 54.5881 1 47.7467 1H27.8027V20.1806H38.7046C39.4627 21.225 40.3961 22.1332 41.4587 22.8671H27.8027V24.3677V35.9584H40.894V28.9417L45.0811 35.9584H60.5864L53.9662 24.3669L53.9679 24.3677ZM38.5398 13.5188C38.5398 8.35495 42.7243 4.17046 47.8881 4.17046C53.0519 4.17046 57.2364 8.35495 57.2364 13.5188C57.2364 18.6826 53.0511 22.8671 47.8881 22.8671C42.7252 22.8671 38.5398 18.6826 38.5398 13.5188Z" fill="black" stroke="#50DEFF" stroke-width="0.867431" stroke-miterlimit="10"/>
<path d="M47.7875 10.5985C48.9775 10.5985 49.9422 9.63377 49.9422 8.44376C49.9422 7.25375 48.9775 6.28906 47.7875 6.28906C46.5975 6.28906 45.6328 7.25375 45.6328 8.44376C45.6328 9.63377 46.5975 10.5985 47.7875 10.5985Z" fill="black" stroke="#50DEFF" stroke-width="0.867431" stroke-miterlimit="10"/>
<path d="M52.9638 14.139C54.1385 13.9483 54.9361 12.8415 54.7454 11.6669C54.5548 10.4922 53.448 9.69456 52.2733 9.88523C51.0987 10.0759 50.3011 11.1827 50.4917 12.3573C50.6824 13.532 51.7892 14.3296 52.9638 14.139Z" fill="black" stroke="#50DEFF" stroke-width="0.867431" stroke-miterlimit="10"/>
<path d="M43.0727 14.1688C44.2627 14.1688 45.2274 13.2041 45.2274 12.0141C45.2274 10.8241 44.2627 9.85938 43.0727 9.85938C41.8827 9.85938 40.918 10.8241 40.918 12.0141C40.918 13.2041 41.8827 14.1688 43.0727 14.1688Z" fill="black" stroke="#50DEFF" stroke-width="0.867431" stroke-miterlimit="10"/>
<path d="M44.7836 19.7586C45.9736 19.7586 46.9383 18.7939 46.9383 17.6039C46.9383 16.4139 45.9736 15.4492 44.7836 15.4492C43.5936 15.4492 42.6289 16.4139 42.6289 17.6039C42.6289 18.7939 43.5936 19.7586 44.7836 19.7586Z" fill="black" stroke="#50DEFF" stroke-width="0.867431" stroke-miterlimit="10"/>
<path d="M50.8422 19.7586C52.0322 19.7586 52.9969 18.7939 52.9969 17.6039C52.9969 16.4139 52.0322 15.4492 50.8422 15.4492C49.6522 15.4492 48.6875 16.4139 48.6875 17.6039C48.6875 18.7939 49.6522 19.7586 50.8422 19.7586Z" fill="black" stroke="#50DEFF" stroke-width="0.867431" stroke-miterlimit="10"/>
<path d="M17 8.62531V18.0985C17 19.5176 18.5371 20.4059 19.7654 19.6946L25.1625 16.5788V10.1433L19.7654 7.0275C18.5371 6.31707 17 7.20446 17 8.62357V8.62531Z" fill="black" stroke="#50DEFF" stroke-width="0.867431" stroke-miterlimit="10"/>
<path d="M41.3349 52.401L41.3245 47.8297L39.1169 51.5154H38.2304L36.0228 47.8887V52.401H34.2168V44.2194H35.7409L38.6936 49.1473L41.5934 44.2194H43.1184L43.1297 52.401H41.3349Z" fill="black"/>
<path d="M42.9033 44.4346L42.9146 52.1833H41.5527L41.5414 47.0473L38.9955 51.2977H38.3536L35.8077 47.1132V52.1833H34.4355V44.4346H35.6195L38.6971 49.5706L41.7193 44.4346H42.9033ZM43.3362 44.0009H41.4703L41.3445 44.2143L38.6928 48.7206L35.9908 44.2108L35.8641 44H34V52.6162H36.2397V48.6598L37.9815 51.5224L38.1082 51.7305H39.2402L39.3668 51.5198L41.1103 48.6087L41.1181 52.1833V52.6162H43.3474V52.1816L43.3353 44.4328V44L43.3362 44.0009Z" fill="#50DEFF"/>
<path d="M6.45181 49.7846C7.52308 49.3257 8.14764 48.4193 8.14764 47.1823C8.14764 45.3338 6.77015 44.1914 4.56775 44.1914H1V52.4337H2.90748V50.1376H4.6623L6.2523 52.4337H8.30117L6.45267 49.7846H6.45181ZM4.46192 48.6188H2.90748V45.7458H4.46192C5.62775 45.7458 6.21673 46.2758 6.21673 47.1823C6.21673 48.0888 5.62775 48.6188 4.46192 48.6188Z" fill="black" stroke="#50DEFF" stroke-width="0.433716" stroke-miterlimit="10"/>
<path d="M16.036 48.997V47.5119H9.6543V52.4337H16.036V50.9045H11.5496V48.997H16.036ZM9.6543 44.1914V45.7224H16.036V44.1914H9.6543Z" fill="black" stroke="#50DEFF" stroke-width="0.433716" stroke-miterlimit="10"/>
<path d="M23.9364 48.997V47.5119H17.5547V52.4337H23.9364V50.9045H19.4509V48.997H23.9364ZM17.5547 44.1914V45.7224H23.9364V44.1914H17.5547Z" fill="black" stroke="#50DEFF" stroke-width="0.433716" stroke-miterlimit="10"/>
<path d="M27.3606 50.8793V44.1914H25.4531V52.4337H31.493V50.8793H27.3606Z" fill="black" stroke="#50DEFF" stroke-width="0.433716" stroke-miterlimit="10"/>
<path d="M53.2168 52.405V44.2189H56.821C59.4797 44.2189 61.2666 45.8634 61.2666 48.3115C61.2666 50.7596 59.4805 52.4041 56.821 52.4041H53.2168V52.405ZM56.7542 50.7526C58.3503 50.7526 59.3816 49.7946 59.3816 48.3115C59.3816 46.8284 58.3503 45.8703 56.7542 45.8703H55.0896V50.7518H56.7542V50.7526Z" fill="black"/>
<path d="M56.821 44.4356C59.334 44.4356 61.0498 45.9864 61.0498 48.3113C61.0498 50.6362 59.334 52.187 56.821 52.187H53.4337V44.4348H56.821M54.8728 50.9685H56.7542C58.4813 50.9685 59.5985 49.9168 59.5985 48.3104C59.5985 46.7041 58.4804 45.6523 56.7542 45.6523H54.8728V50.9677M56.821 44H53V52.62H56.821C58.1664 52.62 59.3244 52.2121 60.1702 51.4406C61.0289 50.6561 61.4835 49.574 61.4835 48.3104C61.4835 47.0469 61.0289 45.9639 60.1702 45.1802C59.3253 44.4087 58.1673 44.0009 56.821 44.0009V44ZM55.3065 46.0862H56.7542C58.241 46.0862 59.1648 46.9384 59.1648 48.3104C59.1648 49.6824 58.241 50.5346 56.7542 50.5346H55.3065V46.0871V46.0862Z" fill="#50DEFF"/>
<path d="M65.0896 44.2154H63.2168V52.4015H65.0896V44.2154Z" fill="black"/>
<path d="M64.8728 44.4339V52.1861H63.4337V44.4339H64.8728ZM65.3065 44H63V52.62H65.3065V44Z" fill="#50DEFF"/>
<path d="M74.4255 52.3975L73.6508 50.6045H70.0623L69.2981 52.3975H67.3359L71.0182 44.215H72.7149L76.4084 52.3975H74.4246H74.4255ZM72.9873 49.0414L71.8561 46.42L70.7337 49.0414H72.9864H72.9873Z" fill="black"/>
<path d="M72.575 44.4337L76.0725 52.1825H74.5675L73.7929 50.3895H69.9189L69.1547 52.1825H67.6714L71.1585 44.4337H72.575ZM70.4055 49.2601H73.3166L71.8559 45.8728L70.4055 49.2601ZM72.8552 44H70.8774L70.762 44.2559L67.275 52.0047L67 52.6162H69.441L69.5537 52.3525L70.2052 50.8232H73.5075L74.1693 52.3551L74.2821 52.6171H76.7439L76.4671 52.0047L72.9697 44.2559L72.8543 44.0009L72.8552 44ZM71.063 48.8264L71.8567 46.971L72.6565 48.8264H71.0622H71.063Z" fill="#50DEFF"/>
</svg>
