<svg width="24" height="24" viewBox="0 0 24 24" fill="none" xmlns="http://www.w3.org/2000/svg">
<path d="M8 17.95C8.16667 17.9667 8.32933 17.9793 8.488 17.988C8.64667 17.9967 8.81733 18.0007 9 18C9.18333 18 9.35433 17.9957 9.513 17.987C9.67167 17.9783 9.834 17.966 10 17.95V20H20V10H17.95C17.9667 9.83333 17.9793 9.67067 17.988 9.512C17.9967 9.35333 18.0007 9.18267 18 9C18 8.81667 17.9957 8.64567 17.987 8.487C17.9783 8.32833 17.966 8.166 17.95 8H20C20.55 8 21.021 8.196 21.413 8.588C21.805 8.98 22.0007 9.45067 22 10V20C22 20.55 21.804 21.021 21.412 21.413C21.02 21.805 20.5493 22.0007 20 22H10C9.45 22 8.979 21.804 8.587 21.412C8.195 21.02 7.99933 20.5493 8 20V17.95ZM9 16C7.05 16 5.39567 15.3207 4.037 13.962C2.67833 12.6033 1.99933 10.9493 2 9C2 7.05 2.67933 5.39567 4.038 4.037C5.39667 2.67833 7.05067 1.99933 9 2C10.95 2 12.6043 2.67933 13.963 4.038C15.3217 5.39667 16.0007 7.05067 16 9C16 10.95 15.3207 12.6043 13.962 13.963C12.6033 15.3217 10.9493 16.0007 9 16ZM9 14C10.3833 14 11.5627 13.5123 12.538 12.537C13.5133 11.5617 14.0007 10.3827 14 9C14 7.61667 13.5123 6.43733 12.537 5.462C11.5617 4.48667 10.3827 3.99933 9 4C7.61667 4 6.43733 4.48767 5.462 5.463C4.48667 6.43833 3.99933 7.61733 4 9C4 10.3833 4.48767 11.5627 5.463 12.538C6.43833 13.5133 7.61733 14.0007 9 14Z" fill="#272727"/>
</svg>
