<svg width="271" height="42" viewBox="0 0 271 42" fill="none" xmlns="http://www.w3.org/2000/svg">
<path d="M17.925 11.65C17.8521 11.65 17.7821 11.679 17.7305 11.7305C17.679 11.7821 17.65 11.8521 17.65 11.925V14.1932C17.65 14.3015 17.6287 14.4088 17.5872 14.5089C17.5457 14.609 17.485 14.7 17.4084 14.7766C17.3318 14.8532 17.2408 14.9139 17.1407 14.9554C17.0406 14.9969 16.9333 15.0182 16.825 15.0182C16.7167 15.0182 16.6094 14.9969 16.5093 14.9554C16.4092 14.9139 16.3182 14.8532 16.2416 14.7766C16.165 14.7 16.1043 14.609 16.0628 14.5089C16.0213 14.4088 16 14.3015 16 14.1932V11.925C16 10.8613 16.8613 10 17.925 10H20.1932C20.3015 10 20.4088 10.0213 20.5089 10.0628C20.609 10.1043 20.7 10.165 20.7766 10.2416C20.8532 10.3182 20.9139 10.4092 20.9554 10.5093C20.9969 10.6094 21.0182 10.7167 21.0182 10.825C21.0182 10.9333 20.9969 11.0406 20.9554 11.1407C20.9139 11.2408 20.8532 11.3318 20.7766 11.4084C20.7 11.485 20.609 11.5457 20.5089 11.5872C20.4088 11.6287 20.3015 11.65 20.1932 11.65H17.925ZM32.9818 10.825C32.9818 10.6062 33.0687 10.3964 33.2234 10.2416C33.3782 10.0869 33.588 10 33.8068 10H36.075C37.1376 10 38 10.8613 38 11.925V14.1932C38 14.412 37.9131 14.6218 37.7584 14.7766C37.6036 14.9313 37.3938 15.0182 37.175 15.0182C36.9562 15.0182 36.7464 14.9313 36.5916 14.7766C36.4369 14.6218 36.35 14.412 36.35 14.1932V11.925C36.35 11.8521 36.321 11.7821 36.2695 11.7305C36.2179 11.679 36.1479 11.65 36.075 11.65H33.8068C33.588 11.65 33.3782 11.5631 33.2234 11.4084C33.0687 11.2536 32.9818 11.0438 32.9818 10.825ZM16.825 26.9818C17.0438 26.9818 17.2536 27.0687 17.4084 27.2234C17.5631 27.3782 17.65 27.588 17.65 27.8068V30.075C17.65 30.2268 17.7732 30.35 17.925 30.35H20.1932C20.412 30.35 20.6218 30.4369 20.7766 30.5916C20.9313 30.7464 21.0182 30.9562 21.0182 31.175C21.0182 31.3938 20.9313 31.6036 20.7766 31.7584C20.6218 31.9131 20.412 32 20.1932 32H17.925C17.4145 32 16.9248 31.7972 16.5638 31.4362C16.2028 31.0752 16 30.5855 16 30.075V27.8068C16 27.588 16.0869 27.3782 16.2416 27.2234C16.3964 27.0687 16.6062 26.9818 16.825 26.9818ZM37.175 26.9818C37.3938 26.9818 37.6036 27.0687 37.7584 27.2234C37.9131 27.3782 38 27.588 38 27.8068V30.075C38 30.5855 37.7972 31.0752 37.4362 31.4362C37.0752 31.7972 36.5855 32 36.075 32H33.8068C33.588 32 33.3782 31.9131 33.2234 31.7584C33.0687 31.6036 32.9818 31.3938 32.9818 31.175C32.9818 30.9562 33.0687 30.7464 33.2234 30.5916C33.3782 30.4369 33.588 30.35 33.8068 30.35H36.075C36.1479 30.35 36.2179 30.321 36.2695 30.2695C36.321 30.2179 36.35 30.1479 36.35 30.075V27.8068C36.35 27.588 36.4369 27.3782 36.5916 27.2234C36.7464 27.0687 36.9562 26.9818 37.175 26.9818ZM16.825 17.9068C17.0438 17.9068 17.2536 17.9937 17.4084 18.1484C17.5631 18.3032 17.65 18.513 17.65 18.7318V23.2682C17.65 23.3765 17.6287 23.4838 17.5872 23.5839C17.5457 23.684 17.485 23.775 17.4084 23.8516C17.3318 23.9282 17.2408 23.9889 17.1407 24.0304C17.0406 24.0719 16.9333 24.0932 16.825 24.0932C16.7167 24.0932 16.6094 24.0719 16.5093 24.0304C16.4092 23.9889 16.3182 23.9282 16.2416 23.8516C16.165 23.775 16.1043 23.684 16.0628 23.5839C16.0213 23.4838 16 23.3765 16 23.2682V18.7318C16 18.513 16.0869 18.3032 16.2416 18.1484C16.3964 17.9937 16.6062 17.9068 16.825 17.9068ZM23.9068 10.825C23.9068 10.6062 23.9937 10.3964 24.1484 10.2416C24.3032 10.0869 24.513 10 24.7318 10H29.2682C29.3765 10 29.4838 10.0213 29.5839 10.0628C29.684 10.1043 29.775 10.165 29.8516 10.2416C29.9282 10.3182 29.9889 10.4092 30.0304 10.5093C30.0719 10.6094 30.0932 10.7167 30.0932 10.825C30.0932 10.9333 30.0719 11.0406 30.0304 11.1407C29.9889 11.2408 29.9282 11.3318 29.8516 11.4084C29.775 11.485 29.684 11.5457 29.5839 11.5872C29.4838 11.6287 29.3765 11.65 29.2682 11.65H24.7318C24.513 11.65 24.3032 11.5631 24.1484 11.4084C23.9937 11.2536 23.9068 11.0438 23.9068 10.825ZM23.9068 31.175C23.9068 30.9562 23.9937 30.7464 24.1484 30.5916C24.3032 30.4369 24.513 30.35 24.7318 30.35H29.2682C29.487 30.35 29.6968 30.4369 29.8516 30.5916C30.0063 30.7464 30.0932 30.9562 30.0932 31.175C30.0932 31.3938 30.0063 31.6036 29.8516 31.7584C29.6968 31.9131 29.487 32 29.2682 32H24.7318C24.513 32 24.3032 31.9131 24.1484 31.7584C23.9937 31.6036 23.9068 31.3938 23.9068 31.175ZM37.175 17.9068C37.3938 17.9068 37.6036 17.9937 37.7584 18.1484C37.9131 18.3032 38 18.513 38 18.7318V23.2682C38 23.487 37.9131 23.6968 37.7584 23.8516C37.6036 24.0063 37.3938 24.0932 37.175 24.0932C36.9562 24.0932 36.7464 24.0063 36.5916 23.8516C36.4369 23.6968 36.35 23.487 36.35 23.2682V18.7318C36.35 18.513 36.4369 18.3032 36.5916 18.1484C36.7464 17.9937 36.9562 17.9068 37.175 17.9068ZM17.925 16.875C17.925 16.6562 18.0119 16.4464 18.1666 16.2916C18.3214 16.1369 18.5312 16.05 18.75 16.05H20.95C21.1688 16.05 21.3786 16.1369 21.5334 16.2916C21.6881 16.4464 21.775 16.6562 21.775 16.875C21.775 17.0938 21.6881 17.3036 21.5334 17.4584C21.3786 17.6131 21.1688 17.7 20.95 17.7H18.75C18.5312 17.7 18.3214 17.6131 18.1666 17.4584C18.0119 17.3036 17.925 17.0938 17.925 16.875ZM23.975 16.875C23.975 16.6562 24.0619 16.4464 24.2166 16.2916C24.3714 16.1369 24.5812 16.05 24.8 16.05H27C27.2188 16.05 27.4286 16.1369 27.5834 16.2916C27.7381 16.4464 27.825 16.6562 27.825 16.875C27.825 17.0938 27.7381 17.3036 27.5834 17.4584C27.4286 17.6131 27.2188 17.7 27 17.7H24.8C24.5812 17.7 24.3714 17.6131 24.2166 17.4584C24.0619 17.3036 23.975 17.0938 23.975 16.875ZM22.875 11.925C23.0938 11.925 23.3036 12.0119 23.4584 12.1666C23.6131 12.3214 23.7 12.5312 23.7 12.75V14.95C23.7 15.1688 23.6131 15.3786 23.4584 15.5334C23.3036 15.6881 23.0938 15.775 22.875 15.775C22.6562 15.775 22.4464 15.6881 22.2916 15.5334C22.1369 15.3786 22.05 15.1688 22.05 14.95V12.75C22.05 12.5312 22.1369 12.3214 22.2916 12.1666C22.4464 12.0119 22.6562 11.925 22.875 11.925ZM22.875 17.975C23.0938 17.975 23.3036 18.0619 23.4584 18.2166C23.6131 18.3714 23.7 18.5812 23.7 18.8V21C23.7 21.2188 23.6131 21.4286 23.4584 21.5834C23.3036 21.7381 23.0938 21.825 22.875 21.825C22.6562 21.825 22.4464 21.7381 22.2916 21.5834C22.1369 21.4286 22.05 21.2188 22.05 21V18.8C22.05 18.5812 22.1369 18.3714 22.2916 18.2166C22.4464 18.0619 22.6562 17.975 22.875 17.975ZM22.875 23.2C23.0938 23.2 23.3036 23.2869 23.4584 23.4416C23.6131 23.5964 23.7 23.8062 23.7 24.025V28.425C23.7 28.6438 23.6131 28.8536 23.4584 29.0084C23.3036 29.1631 23.0938 29.25 22.875 29.25C22.6562 29.25 22.4464 29.1631 22.2916 29.0084C22.1369 28.8536 22.05 28.6438 22.05 28.425V24.025C22.05 23.8062 22.1369 23.5964 22.2916 23.4416C22.4464 23.2869 22.6562 23.2 22.875 23.2ZM29.2 16.875C29.2 16.6562 29.2869 16.4464 29.4416 16.2916C29.5964 16.1369 29.8062 16.05 30.025 16.05H34.425C34.6438 16.05 34.8536 16.1369 35.0084 16.2916C35.1631 16.4464 35.25 16.6562 35.25 16.875C35.25 17.0938 35.1631 17.3036 35.0084 17.4584C34.8536 17.6131 34.6438 17.7 34.425 17.7H30.025C29.8062 17.7 29.5964 17.6131 29.4416 17.4584C29.2869 17.3036 29.2 17.0938 29.2 16.875Z" fill="#6C9CFF"/>
<path d="M49.6829 26V17.74H46.4349V16.2H54.7509V17.74H51.5029V26H49.6829ZM58.3972 26.098C57.5665 26.098 56.8385 25.9347 56.2132 25.608C55.5972 25.272 55.1165 24.8147 54.7712 24.236C54.4352 23.6573 54.2672 22.9993 54.2672 22.262C54.2672 21.5153 54.4305 20.8573 54.7572 20.288C55.0932 19.7093 55.5505 19.2567 56.1292 18.93C56.7172 18.6033 57.3845 18.44 58.1312 18.44C58.8592 18.44 59.5078 18.5987 60.0772 18.916C60.6465 19.2333 61.0945 19.6813 61.4212 20.26C61.7478 20.8387 61.9112 21.52 61.9112 22.304C61.9112 22.3787 61.9065 22.4627 61.8972 22.556C61.8972 22.6493 61.8925 22.738 61.8832 22.822H55.6532V21.66H60.9592L60.2732 22.024C60.2825 21.5947 60.1938 21.2167 60.0072 20.89C59.8205 20.5633 59.5638 20.3067 59.2372 20.12C58.9198 19.9333 58.5512 19.84 58.1312 19.84C57.7018 19.84 57.3238 19.9333 56.9972 20.12C56.6798 20.3067 56.4278 20.568 56.2412 20.904C56.0638 21.2307 55.9752 21.618 55.9752 22.066V22.346C55.9752 22.794 56.0778 23.1907 56.2832 23.536C56.4885 23.8813 56.7778 24.1473 57.1512 24.334C57.5245 24.5207 57.9538 24.614 58.4392 24.614C58.8592 24.614 59.2372 24.5487 59.5732 24.418C59.9092 24.2873 60.2078 24.082 60.4692 23.802L61.4072 24.88C61.0712 25.272 60.6465 25.5753 60.1332 25.79C59.6292 25.9953 59.0505 26.098 58.3972 26.098ZM72.7281 18.44C73.3255 18.44 73.8528 18.5567 74.3101 18.79C74.7768 19.0233 75.1408 19.3827 75.4021 19.868C75.6635 20.344 75.7941 20.96 75.7941 21.716V26H74.0441V21.94C74.0441 21.2773 73.8995 20.7827 73.6101 20.456C73.3208 20.1293 72.9055 19.966 72.3641 19.966C71.9815 19.966 71.6408 20.05 71.3421 20.218C71.0528 20.386 70.8241 20.6333 70.6561 20.96C70.4975 21.2867 70.4181 21.702 70.4181 22.206V26H68.6681V21.94C68.6681 21.2773 68.5235 20.7827 68.2341 20.456C67.9448 20.1293 67.5295 19.966 66.9881 19.966C66.6055 19.966 66.2648 20.05 65.9661 20.218C65.6768 20.386 65.4481 20.6333 65.2801 20.96C65.1215 21.2867 65.0421 21.702 65.0421 22.206V26H63.2921V18.524H64.9581V20.512L64.6641 19.924C64.9161 19.4387 65.2801 19.07 65.7561 18.818C66.2415 18.566 66.7921 18.44 67.4081 18.44C68.1081 18.44 68.7148 18.6127 69.2281 18.958C69.7508 19.3033 70.0961 19.826 70.2641 20.526L69.5781 20.288C69.8208 19.728 70.2221 19.28 70.7821 18.944C71.3421 18.608 71.9908 18.44 72.7281 18.44ZM81.8744 26.098C81.2678 26.098 80.7124 25.958 80.2084 25.678C79.7138 25.398 79.3171 24.978 79.0184 24.418C78.7291 23.8487 78.5844 23.13 78.5844 22.262C78.5844 21.3847 78.7244 20.666 79.0044 20.106C79.2938 19.546 79.6858 19.1307 80.1804 18.86C80.6751 18.58 81.2398 18.44 81.8744 18.44C82.6118 18.44 83.2604 18.5987 83.8204 18.916C84.3898 19.2333 84.8378 19.6767 85.1644 20.246C85.5004 20.8153 85.6684 21.4873 85.6684 22.262C85.6684 23.0367 85.5004 23.7133 85.1644 24.292C84.8378 24.8613 84.3898 25.3047 83.8204 25.622C83.2604 25.9393 82.6118 26.098 81.8744 26.098ZM77.7304 28.716V18.524H79.3964V20.288L79.3404 22.276L79.4804 24.264V28.716H77.7304ZM81.6784 24.6C82.0984 24.6 82.4718 24.5067 82.7984 24.32C83.1344 24.1333 83.4004 23.8627 83.5964 23.508C83.7924 23.1533 83.8904 22.738 83.8904 22.262C83.8904 21.7767 83.7924 21.3613 83.5964 21.016C83.4004 20.6613 83.1344 20.3907 82.7984 20.204C82.4718 20.0173 82.0984 19.924 81.6784 19.924C81.2584 19.924 80.8804 20.0173 80.5444 20.204C80.2084 20.3907 79.9424 20.6613 79.7464 21.016C79.5504 21.3613 79.4524 21.7767 79.4524 22.262C79.4524 22.738 79.5504 23.1533 79.7464 23.508C79.9424 23.8627 80.2084 24.1333 80.5444 24.32C80.8804 24.5067 81.2584 24.6 81.6784 24.6ZM87.0281 26V15.612H88.7781V26H87.0281ZM95.381 26V24.488L95.283 24.166V21.52C95.283 21.0067 95.129 20.61 94.821 20.33C94.513 20.0407 94.0463 19.896 93.421 19.896C93.001 19.896 92.5856 19.9613 92.175 20.092C91.7736 20.2227 91.433 20.4047 91.153 20.638L90.467 19.364C90.8683 19.056 91.3443 18.8273 91.895 18.678C92.455 18.5193 93.0336 18.44 93.631 18.44C94.7136 18.44 95.549 18.7013 96.137 19.224C96.7343 19.7373 97.033 20.5353 97.033 21.618V26H95.381ZM93.029 26.098C92.469 26.098 91.979 26.0047 91.559 25.818C91.139 25.622 90.8123 25.356 90.579 25.02C90.355 24.6747 90.243 24.2873 90.243 23.858C90.243 23.438 90.341 23.06 90.537 22.724C90.7423 22.388 91.0736 22.122 91.531 21.926C91.9883 21.73 92.595 21.632 93.351 21.632H95.521V22.794H93.477C92.8796 22.794 92.4783 22.892 92.273 23.088C92.0676 23.2747 91.965 23.508 91.965 23.788C91.965 24.1053 92.091 24.3573 92.343 24.544C92.595 24.7307 92.945 24.824 93.393 24.824C93.8223 24.824 94.205 24.726 94.541 24.53C94.8863 24.334 95.1336 24.0447 95.283 23.662L95.577 24.712C95.409 25.1507 95.1056 25.4913 94.667 25.734C94.2376 25.9767 93.6916 26.098 93.029 26.098ZM101.793 26.098C100.972 26.098 100.337 25.888 99.8889 25.468C99.4409 25.0387 99.2169 24.4087 99.2169 23.578V16.872H100.967V23.536C100.967 23.8907 101.056 24.166 101.233 24.362C101.42 24.558 101.676 24.656 102.003 24.656C102.395 24.656 102.722 24.5533 102.983 24.348L103.473 25.594C103.268 25.762 103.016 25.888 102.717 25.972C102.418 26.056 102.11 26.098 101.793 26.098ZM97.9849 19.98V18.58H102.969V19.98H97.9849ZM107.88 26.098C107.05 26.098 106.322 25.9347 105.696 25.608C105.08 25.272 104.6 24.8147 104.254 24.236C103.918 23.6573 103.75 22.9993 103.75 22.262C103.75 21.5153 103.914 20.8573 104.24 20.288C104.576 19.7093 105.034 19.2567 105.612 18.93C106.2 18.6033 106.868 18.44 107.614 18.44C108.342 18.44 108.991 18.5987 109.56 18.916C110.13 19.2333 110.578 19.6813 110.904 20.26C111.231 20.8387 111.394 21.52 111.394 22.304C111.394 22.3787 111.39 22.4627 111.38 22.556C111.38 22.6493 111.376 22.738 111.366 22.822H105.136V21.66H110.442L109.756 22.024C109.766 21.5947 109.677 21.2167 109.49 20.89C109.304 20.5633 109.047 20.3067 108.72 20.12C108.403 19.9333 108.034 19.84 107.614 19.84C107.185 19.84 106.807 19.9333 106.48 20.12C106.163 20.3067 105.911 20.568 105.724 20.904C105.547 21.2307 105.458 21.618 105.458 22.066V22.346C105.458 22.794 105.561 23.1907 105.766 23.536C105.972 23.8813 106.261 24.1473 106.634 24.334C107.008 24.5207 107.437 24.614 107.922 24.614C108.342 24.614 108.72 24.5487 109.056 24.418C109.392 24.2873 109.691 24.082 109.952 23.802L110.89 24.88C110.554 25.272 110.13 25.5753 109.616 25.79C109.112 25.9953 108.534 26.098 107.88 26.098ZM116.512 26V16.2H118.01L124.156 23.746H123.414V16.2H125.22V26H123.722L117.576 18.454H118.318V26H116.512ZM131.984 26V24.488L131.886 24.166V21.52C131.886 21.0067 131.732 20.61 131.424 20.33C131.116 20.0407 130.65 19.896 130.024 19.896C129.604 19.896 129.189 19.9613 128.778 20.092C128.377 20.2227 128.036 20.4047 127.756 20.638L127.07 19.364C127.472 19.056 127.948 18.8273 128.498 18.678C129.058 18.5193 129.637 18.44 130.234 18.44C131.317 18.44 132.152 18.7013 132.74 19.224C133.338 19.7373 133.636 20.5353 133.636 21.618V26H131.984ZM129.632 26.098C129.072 26.098 128.582 26.0047 128.162 25.818C127.742 25.622 127.416 25.356 127.182 25.02C126.958 24.6747 126.846 24.2873 126.846 23.858C126.846 23.438 126.944 23.06 127.14 22.724C127.346 22.388 127.677 22.122 128.134 21.926C128.592 21.73 129.198 21.632 129.954 21.632H132.124V22.794H130.08C129.483 22.794 129.082 22.892 128.876 23.088C128.671 23.2747 128.568 23.508 128.568 23.788C128.568 24.1053 128.694 24.3573 128.946 24.544C129.198 24.7307 129.548 24.824 129.996 24.824C130.426 24.824 130.808 24.726 131.144 24.53C131.49 24.334 131.737 24.0447 131.886 23.662L132.18 24.712C132.012 25.1507 131.709 25.4913 131.27 25.734C130.841 25.9767 130.295 26.098 129.632 26.098ZM145.018 18.44C145.616 18.44 146.143 18.5567 146.6 18.79C147.067 19.0233 147.431 19.3827 147.692 19.868C147.954 20.344 148.084 20.96 148.084 21.716V26H146.334V21.94C146.334 21.2773 146.19 20.7827 145.9 20.456C145.611 20.1293 145.196 19.966 144.654 19.966C144.272 19.966 143.931 20.05 143.632 20.218C143.343 20.386 143.114 20.6333 142.946 20.96C142.788 21.2867 142.708 21.702 142.708 22.206V26H140.958V21.94C140.958 21.2773 140.814 20.7827 140.524 20.456C140.235 20.1293 139.82 19.966 139.278 19.966C138.896 19.966 138.555 20.05 138.256 20.218C137.967 20.386 137.738 20.6333 137.57 20.96C137.412 21.2867 137.332 21.702 137.332 22.206V26H135.582V18.524H137.248V20.512L136.954 19.924C137.206 19.4387 137.57 19.07 138.046 18.818C138.532 18.566 139.082 18.44 139.698 18.44C140.398 18.44 141.005 18.6127 141.518 18.958C142.041 19.3033 142.386 19.826 142.554 20.526L141.868 20.288C142.111 19.728 142.512 19.28 143.072 18.944C143.632 18.608 144.281 18.44 145.018 18.44ZM153.548 26.098C152.718 26.098 151.99 25.9347 151.364 25.608C150.748 25.272 150.268 24.8147 149.922 24.236C149.586 23.6573 149.418 22.9993 149.418 22.262C149.418 21.5153 149.582 20.8573 149.908 20.288C150.244 19.7093 150.702 19.2567 151.28 18.93C151.868 18.6033 152.536 18.44 153.282 18.44C154.01 18.44 154.659 18.5987 155.228 18.916C155.798 19.2333 156.246 19.6813 156.572 20.26C156.899 20.8387 157.062 21.52 157.062 22.304C157.062 22.3787 157.058 22.4627 157.048 22.556C157.048 22.6493 157.044 22.738 157.034 22.822H150.804V21.66H156.11L155.424 22.024C155.434 21.5947 155.345 21.2167 155.158 20.89C154.972 20.5633 154.715 20.3067 154.388 20.12C154.071 19.9333 153.702 19.84 153.282 19.84C152.853 19.84 152.475 19.9333 152.148 20.12C151.831 20.3067 151.579 20.568 151.392 20.904C151.215 21.2307 151.126 21.618 151.126 22.066V22.346C151.126 22.794 151.229 23.1907 151.434 23.536C151.64 23.8813 151.929 24.1473 152.302 24.334C152.676 24.5207 153.105 24.614 153.59 24.614C154.01 24.614 154.388 24.5487 154.724 24.418C155.06 24.2873 155.359 24.082 155.62 23.802L156.558 24.88C156.222 25.272 155.798 25.5753 155.284 25.79C154.78 25.9953 154.202 26.098 153.548 26.098ZM156.875 27.4L161.495 14.212H163.063L158.443 27.4H156.875ZM165.187 20.274H170.059V21.772H165.187V20.274ZM165.327 24.474H170.857V26H163.507V16.2H170.661V17.726H165.327V24.474ZM174.31 26L171.104 18.524H172.924L175.682 25.118H174.786L177.642 18.524H179.322L176.116 26H174.31ZM183.424 26.098C182.594 26.098 181.866 25.9347 181.24 25.608C180.624 25.272 180.144 24.8147 179.798 24.236C179.462 23.6573 179.294 22.9993 179.294 22.262C179.294 21.5153 179.458 20.8573 179.784 20.288C180.12 19.7093 180.578 19.2567 181.156 18.93C181.744 18.6033 182.412 18.44 183.158 18.44C183.886 18.44 184.535 18.5987 185.104 18.916C185.674 19.2333 186.122 19.6813 186.448 20.26C186.775 20.8387 186.938 21.52 186.938 22.304C186.938 22.3787 186.934 22.4627 186.924 22.556C186.924 22.6493 186.92 22.738 186.91 22.822H180.68V21.66H185.986L185.3 22.024C185.31 21.5947 185.221 21.2167 185.034 20.89C184.848 20.5633 184.591 20.3067 184.264 20.12C183.947 19.9333 183.578 19.84 183.158 19.84C182.729 19.84 182.351 19.9333 182.024 20.12C181.707 20.3067 181.455 20.568 181.268 20.904C181.091 21.2307 181.002 21.618 181.002 22.066V22.346C181.002 22.794 181.105 23.1907 181.31 23.536C181.516 23.8813 181.805 24.1473 182.178 24.334C182.552 24.5207 182.981 24.614 183.466 24.614C183.886 24.614 184.264 24.5487 184.6 24.418C184.936 24.2873 185.235 24.082 185.496 23.802L186.434 24.88C186.098 25.272 185.674 25.5753 185.16 25.79C184.656 25.9953 184.078 26.098 183.424 26.098ZM192.561 18.44C193.159 18.44 193.691 18.5567 194.157 18.79C194.633 19.0233 195.007 19.3827 195.277 19.868C195.548 20.344 195.683 20.96 195.683 21.716V26H193.933V21.94C193.933 21.2773 193.775 20.7827 193.457 20.456C193.149 20.1293 192.715 19.966 192.155 19.966C191.745 19.966 191.381 20.05 191.063 20.218C190.746 20.386 190.499 20.638 190.321 20.974C190.153 21.3007 190.069 21.716 190.069 22.22V26H188.319V18.524H189.985V20.54L189.691 19.924C189.953 19.448 190.331 19.084 190.825 18.832C191.329 18.5707 191.908 18.44 192.561 18.44ZM200.417 26.098C199.596 26.098 198.961 25.888 198.513 25.468C198.065 25.0387 197.841 24.4087 197.841 23.578V16.872H199.591V23.536C199.591 23.8907 199.68 24.166 199.857 24.362C200.044 24.558 200.301 24.656 200.627 24.656C201.019 24.656 201.346 24.5533 201.607 24.348L202.097 25.594C201.892 25.762 201.64 25.888 201.341 25.972C201.043 26.056 200.735 26.098 200.417 26.098ZM196.609 19.98V18.58H201.593V19.98H196.609ZM201.669 27.4L206.289 14.212H207.857L203.237 27.4H201.669ZM208.3 26V16.2H210.12V24.46H215.244V26H208.3ZM220.833 26V24.488L220.735 24.166V21.52C220.735 21.0067 220.581 20.61 220.273 20.33C219.965 20.0407 219.498 19.896 218.873 19.896C218.453 19.896 218.038 19.9613 217.627 20.092C217.226 20.2227 216.885 20.4047 216.605 20.638L215.919 19.364C216.32 19.056 216.796 18.8273 217.347 18.678C217.907 18.5193 218.486 18.44 219.083 18.44C220.166 18.44 221.001 18.7013 221.589 19.224C222.186 19.7373 222.485 20.5353 222.485 21.618V26H220.833ZM218.481 26.098C217.921 26.098 217.431 26.0047 217.011 25.818C216.591 25.622 216.264 25.356 216.031 25.02C215.807 24.6747 215.695 24.2873 215.695 23.858C215.695 23.438 215.793 23.06 215.989 22.724C216.194 22.388 216.526 22.122 216.983 21.926C217.44 21.73 218.047 21.632 218.803 21.632H220.973V22.794H218.929C218.332 22.794 217.93 22.892 217.725 23.088C217.52 23.2747 217.417 23.508 217.417 23.788C217.417 24.1053 217.543 24.3573 217.795 24.544C218.047 24.7307 218.397 24.824 218.845 24.824C219.274 24.824 219.657 24.726 219.993 24.53C220.338 24.334 220.586 24.0447 220.735 23.662L221.029 24.712C220.861 25.1507 220.558 25.4913 220.119 25.734C219.69 25.9767 219.144 26.098 218.481 26.098ZM224.91 28.814C224.546 28.814 224.182 28.7533 223.818 28.632C223.454 28.5107 223.151 28.3427 222.908 28.128L223.608 26.84C223.785 26.9987 223.986 27.1247 224.21 27.218C224.434 27.3113 224.663 27.358 224.896 27.358C225.213 27.358 225.47 27.2787 225.666 27.12C225.862 26.9613 226.044 26.6953 226.212 26.322L226.646 25.342L226.786 25.132L229.614 18.524H231.294L227.794 26.602C227.561 27.162 227.299 27.6053 227.01 27.932C226.73 28.2587 226.413 28.4873 226.058 28.618C225.713 28.7487 225.33 28.814 224.91 28.814ZM226.45 26.266L223.076 18.524H224.896L227.64 24.978L226.45 26.266ZM235.243 26.098C234.477 26.098 233.796 25.9347 233.199 25.608C232.601 25.272 232.13 24.8147 231.785 24.236C231.439 23.6573 231.267 22.9993 231.267 22.262C231.267 21.5153 231.439 20.8573 231.785 20.288C232.13 19.7093 232.601 19.2567 233.199 18.93C233.796 18.6033 234.477 18.44 235.243 18.44C236.017 18.44 236.703 18.6033 237.301 18.93C237.907 19.2567 238.379 19.7047 238.715 20.274C239.06 20.8433 239.233 21.506 239.233 22.262C239.233 22.9993 239.06 23.6573 238.715 24.236C238.379 24.8147 237.907 25.272 237.301 25.608C236.703 25.9347 236.017 26.098 235.243 26.098ZM235.243 24.6C235.672 24.6 236.055 24.5067 236.391 24.32C236.727 24.1333 236.988 23.8627 237.175 23.508C237.371 23.1533 237.469 22.738 237.469 22.262C237.469 21.7767 237.371 21.3613 237.175 21.016C236.988 20.6613 236.727 20.3907 236.391 20.204C236.055 20.0173 235.677 19.924 235.257 19.924C234.827 19.924 234.445 20.0173 234.109 20.204C233.782 20.3907 233.521 20.6613 233.325 21.016C233.129 21.3613 233.031 21.7767 233.031 22.262C233.031 22.738 233.129 23.1533 233.325 23.508C233.521 23.8627 233.782 24.1333 234.109 24.32C234.445 24.5067 234.823 24.6 235.243 24.6ZM243.77 26.098C243.136 26.098 242.576 25.9813 242.09 25.748C241.605 25.5053 241.227 25.1413 240.956 24.656C240.686 24.1613 240.55 23.5407 240.55 22.794V18.524H242.3V22.556C242.3 23.228 242.45 23.732 242.748 24.068C243.056 24.3947 243.49 24.558 244.05 24.558C244.461 24.558 244.816 24.474 245.114 24.306C245.422 24.138 245.66 23.886 245.828 23.55C246.006 23.214 246.094 22.7987 246.094 22.304V18.524H247.844V26H246.178V23.984L246.472 24.6C246.22 25.0853 245.852 25.4587 245.366 25.72C244.881 25.972 244.349 26.098 243.77 26.098ZM252.65 26.098C251.828 26.098 251.194 25.888 250.745 25.468C250.298 25.0387 250.074 24.4087 250.074 23.578V16.872H251.824V23.536C251.824 23.8907 251.912 24.166 252.09 24.362C252.276 24.558 252.533 24.656 252.86 24.656C253.252 24.656 253.578 24.5533 253.84 24.348L254.33 25.594C254.124 25.762 253.872 25.888 253.574 25.972C253.275 26.056 252.967 26.098 252.65 26.098ZM248.842 19.98V18.58H253.826V19.98H248.842Z" fill="#D90429"/>
<rect x="0.5" y="0.5" width="270" height="41" rx="11.5" stroke="#F1EDEE"/>
</svg>
