<svg width="32" height="32" viewBox="0 0 32 32" fill="none" xmlns="http://www.w3.org/2000/svg">
<rect x="0.25" y="0.25" width="31.5" height="31.5" rx="3.75" fill="#FF002E" fill-opacity="0.08"/>
<path d="M20.3499 9.5498C18.7681 9.5498 17.4786 10.8179 17.4504 12.3963L17.4223 13.9714C17.4164 14.3027 17.143 14.5665 16.8117 14.5606C16.7881 14.5602 16.7646 14.5584 16.7413 14.5552L15.1805 14.3423C13.127 14.0623 11.1588 13.1171 9.27072 11.5439C8.67275 14.8535 9.84 17.147 12.6534 18.9157L14.4004 20.014C14.681 20.1904 14.7654 20.5608 14.589 20.8413C14.5486 20.9056 14.4964 20.9616 14.435 21.0064L12.8434 22.1693C13.7897 22.2288 14.6894 22.1873 15.435 22.0385C20.1526 21.097 23.2897 17.5468 23.2897 11.6908C23.2897 11.2128 22.2774 9.5498 20.3499 9.5498ZM15.4507 12.3607C15.4983 9.69559 17.6735 7.5498 20.3499 7.5498C21.7132 7.5498 22.9465 8.10658 23.8348 9.00515C24.5462 8.9998 25.1514 9.17966 26.5035 8.35943C26.1693 9.9998 26.0034 10.7118 25.2897 11.6908C25.2897 19.3324 20.5926 23.0487 15.8264 23.9998C12.5587 24.6519 7.80646 23.5812 6.44531 22.1584C7.13874 22.1051 9.95928 21.8018 11.589 20.6089C10.2099 19.6984 4.72137 16.4679 8.32772 7.78617C10.0212 9.76283 11.738 11.1083 13.4781 11.8226C14.6355 12.2977 14.9198 12.2883 15.4507 12.3607Z" fill="#FF002E"/>
<rect x="0.25" y="0.25" width="31.5" height="31.5" rx="3.75" stroke="#FF002E" stroke-width="0.5"/>
</svg>
